<?xml version="1.0" encoding="UTF-8" standalone="no"?>
<!DOCTYPE svg PUBLIC "-//W3C//DTD SVG 20010904//EN"
              "http://www.w3.org/TR/2001/REC-SVG-20010904/DTD/svg10.dtd">

<svg xmlns="http://www.w3.org/2000/svg"
     width="0.666667in" height="0.666667in"
     viewBox="0 0 200 200">
  <path id="Rahmen"
        fill="#000000" stroke="black" stroke-width="0"
        d="M 20.00,70.00
           C 20.00,70.00 35.00,10.00 105.00,10.00
             185.00,10.00 190.00,70.00 190.00,70.00
             190.00,70.00 104.67,200.00 104.67,200.00
             104.67,200.00 20.00,70.00 20.00,70.00" />
  <path id="Inlay-1"
        fill="#26363b" stroke="black" stroke-width="0"
        d="M 90.00,160.00
           C 90.00,160.00 30.00,70.00 30.00,70.00
             30.00,70.00 40.00,60.00 60.00,70.00
             60.00,70.00 90.00,160.00 90.00,160.00" />
  <path id="Inlay-2"
        fill="#32cd32" stroke="black" stroke-width="0"
        d="M 100.00,170.00
           C 100.00,170.00 70.00,70.00 70.00,70.00
             70.00,70.00 90.00,60.00 100.00,70.00
             100.00,70.00 100.00,170.00 100.00,170.00M 120.00,160.00" />
  <path id="Inlay-3"
        fill="#ca9108" stroke="black" stroke-width="0"
        d="M 110.00,170.00
           C 110.00,170.00 110.00,85.00 110.00,70.00
             120.00,60.00 140.00,70.00 140.00,70.00
             140.00,70.00 110.00,170.00 110.00,170.00" />
  <path id="Inlay-4"
        fill="#D2435F" stroke="black" stroke-width="0"
        d="M 120.00,160.00
           C 120.00,160.00 120.00,150.00 150.00,70.00
             170.00,60.00 180.00,70.00 180.00,70.00
             180.00,70.00 120.00,160.00 120.00,160.00" />
</svg>
